# xmcd CD database file
#
# Track frame offsets:
#	150
#	14721
#	25084
#	36515
#	55939
#	65874
#	78904
#	93002
#	103450
#	112964
#	126756
#	147170
#	158428
#	167719
#
# Disc length: 2436 seconds
#
# Revision: 0
# Processed by: cddbd v1.5.2PL0 Copyright (c) Steve Scherf et al.
# Submitted via: CDex 1.40Beta9
#
DISCID=b909820e
DTITLE=Verschiedene - Country CD2
DYEAR=1900
DGENRE=Country
TTITLE0=John Denver - Take me home country roads
TTITLE1=Dave Dudley - Six days on the road
TTITLE2=Don Gibson - Oh. lonesome me
TTITLE3=Tanya Tucker - Delta dawn
TTITLE4=Eddie Baxter - Yellow rose of Texas
TTITLE5=Hank Williams - Jambalaya
TTITLE6=George Jones - A good year for the roses
TTITLE7=Jimmy Dean - Gotta travel on
TTITLE8=Dolly Parton - Release me
TTITLE9=Willie Nelson - Home is where you're happy
TTITLE10=Nitty Gritty Dirt Band - Mr. Bojangles
TTITLE11=Tammy Wynette - D.I.V.O.R.C.E.
TTITLE12=Frankie Lane - Raw hide
TTITLE13=Billie Jo Spears - Blanket on the ground
EXTD=ID3G: 2
EXTT0=
EXTT1=
EXTT2=
EXTT3=
EXTT4=
EXTT5=
EXTT6=
EXTT7=
EXTT8=
EXTT9=
EXTT10=
EXTT11=
EXTT12=
EXTT13=
PLAYORDER=
